# Blender v2.76 (sub 0) OBJ File: ''
# www.blender.org
mtllib wall1.mtl
v -124.495728 54.810966 -1.540253
v -124.495621 -54.811226 -1.540253
v 124.495621 54.811226 -1.540390
v 124.495728 -54.810966 -1.540390
v -41.786770 18.397202 -1.540298
v -41.786732 -18.397289 -1.540298
v 41.786732 18.397289 -1.540344
v 41.786770 -18.397202 -1.540344
vt 0.116269 0.700265
vt 0.787220 0.684798
vt 0.786694 0.373719
vt 0.797236 0.686661
vt 0.789870 0.365802
vt 0.098695 0.382394
vt 0.995764 0.981207
vt 0.109744 0.681129
vt -0.004073 -0.011710
vt 0.103931 0.382171
vt 1.003131 -0.000648
vt 0.003293 0.997800
vn -0.000000 -0.000000 -1.000000
usemtl None
s off
f 1/1/1 3/2/1 4/3/1
f 7/4/1 8/5/1 6/6/1
f 8/5/1 7/4/1 3/7/1
f 5/8/1 6/6/1 2/9/1
f 2/9/1 6/6/1 8/5/1
f 3/7/1 7/4/1 5/8/1
f 2/10/1 1/1/1 4/3/1
f 5/8/1 7/4/1 6/6/1
f 4/11/1 8/5/1 3/7/1
f 1/12/1 5/8/1 2/9/1
f 4/11/1 2/9/1 8/5/1
f 1/12/1 3/7/1 5/8/1
